<svg xmlns="http://www.w3.org/2000/svg" width="359.695" height="92.209" viewBox="0 0 359.695 92.209">
  <g id="Group_8" data-name="Group 8" transform="translate(-780 -46.7)">
    <g id="Group_7" data-name="Group 7" transform="translate(780 46.7)">
      <path id="Path_58" data-name="Path 58" d="M160.543,0V8.474h4.334v4.237h-4.334V42.23h47.671V33.784h-34.67V29.547h4.334V0Z" transform="translate(-61.853)" fill="#fff"/>
      <path id="Path_59" data-name="Path 59" d="M93.281,25.338h13v8.446h-13Zm0-16.892h13v8.446h-13ZM88.947,0V4.237H84.613V0H75.946V42.23H80.28V37.993h4.333V42.23h34.671V38.007h4.333V25.338h-4.333V16.892h4.333V4.223h-4.333V0Z" transform="translate(-29.26 0)" fill="#fff"/>
      <path id="Path_60" data-name="Path 60" d="M262.475,8.446h4.334V4.208h4.333V8.446h4.334v6.313h4.334V19h-4.334V33.784h-13ZM249.474,0V4.223H245.14V25.31h4.334v4.237H245.14v8.46h4.334V42.23h39V38.007h4.334V4.223h-4.334V0Z" transform="translate(-94.446 0)" fill="#fff"/>
      <path id="Path_61" data-name="Path 61" d="M334.07,0V4.223h-4.334v8.46h4.334v4.238h-4.334V38.006h4.334V42.23h39V38.006h4.334V25.337H360.073v8.446h-13V8.445h13v8.446h17.335V4.223h-4.334V0Z" transform="translate(-127.039)" fill="#fff"/>
      <path id="Path_62" data-name="Path 62" d="M444.67,0V4.223h-4.334V8.445H436v4.223h-4.334V0H414.334V42.23h17.335V37.992h-4.334V33.756h4.334V29.561H436v4.223h4.333v4.223h4.334V42.23h21.668V33.784h-4.333V29.561h-4.334V25.337h-4.333V16.892h4.333V12.669h4.334V8.445h4.333V0Z" transform="translate(-159.632)" fill="#fff"/>
      <path id="Path_63" data-name="Path 63" d="M17.335,106.641h13v8.446h-13Zm0-16.892h13v8.446h-13Zm0-8.446H13V85.54H8.668V81.3H0v42.23H4.334V119.3H8.668v4.237h34.67V119.31h4.334V106.641H43.338V98.2h4.334V85.526H43.338V81.3Z" transform="translate(0 -31.324)" fill="#fff"/>
      <path id="Path_64" data-name="Path 64" d="M88.93,81.3v4.223H84.6v21.086H88.93v4.237H84.6v8.46H88.93v4.223h43.337v-8.446H101.931v-8.446h13V98.2h-13V89.749h30.337V81.3Z" transform="translate(-32.593 -31.324)" fill="#fff"/>
      <path id="Path_65" data-name="Path 65" d="M173.528,81.3v4.223h-4.334v8.46h4.334v4.237h-4.334V119.31h4.334v4.223h39V119.31h4.334V102.418h-4.334V98.2H190.862v8.446h8.667v8.446h-13V89.749h30.337V81.3Z" transform="translate(-65.186 -31.324)" fill="#fff"/>
      <path id="Path_66" data-name="Path 66" d="M258.125,81.3v4.223h-4.334v8.46h4.334v4.237h-4.334V119.31h4.334v4.223h39V119.31h4.334V102.418h-4.334V98.2H275.46v8.446h8.667v8.446h-13V89.749h30.337V81.3Z" transform="translate(-97.779 -31.324)" fill="#fff"/>
      <path id="Path_67" data-name="Path 67" d="M355.723,89.749h13v8.446h-13Zm13-8.446h-26v4.223h-4.334v38.007h17.335V119.3h-4.334v-4.237h4.334v-8.418h13v16.892h17.335V85.526h-4.334V81.3Z" transform="translate(-130.372 -31.324)" fill="#fff"/>
      <path id="Path_68" data-name="Path 68" d="M440.319,89.749h13v8.446h-13Zm13-8.446H422.984v33.756h4.334V119.3h-4.334v4.237h17.335V106.641h13v16.892h17.335V106.641h-4.334V98.2h4.334V85.526h-4.334V81.3Z" transform="translate(-162.965 -31.324)" fill="#fff"/>
      <path id="Path_69" data-name="Path 69" d="M511.916,81.3v4.223h-4.334v16.892h4.334v4.223h26v8.446H507.582v8.446h8.668V119.3h4.334v4.237h30.336V119.31h4.334V102.418h-4.334V98.2h-26V89.749h30.337V81.3Z" transform="translate(-195.558 -31.324)" fill="#fff"/>
    </g>
  </g>
</svg>
